<?xml version="1.0" standalone="no"?>
<!DOCTYPE svg PUBLIC "-//W3C//DTD SVG 20010904//EN"
 "http://www.w3.org/TR/2001/REC-SVG-20010904/DTD/svg10.dtd">
<svg version="1.0" xmlns="http://www.w3.org/2000/svg"
 width="724.47" height="724.47" viewBox="0 0 724.47 724.47"
 preserveAspectRatio="xMidYMid meet">

<g transform="translate(0.000000,201.000000) scale(0.100000,-0.100000)"
fill="#000000" stroke="none">
<path d="M811 1940 c-156 -33 -281 -100 -392 -210 -98 -97 -155 -186 -195
-305 -39 -117 -45 -294 -14 -419 13 -51 18 -91 13 -95 -5 -3 -51 -32 -101 -64
l-92 -59 0 -277 c0 -153 -3 -327 -6 -387 l-6 -109 79 78 79 77 47 -63 c81
-111 77 -117 77 112 0 110 2 201 5 201 3 0 35 -21 71 -46 66 -45 156 -94 171
-94 4 0 -26 19 -67 41 -166 90 -295 214 -394 378 -27 45 -47 83 -45 85 2 2 47
31 99 64 l95 61 35 -67 c136 -260 388 -412 681 -413 126 -1 211 18 324 71 153
71 274 186 351 334 20 39 38 72 39 74 2 2 49 -27 104 -64 l101 -67 -26 -46
c-48 -83 -121 -175 -196 -247 -82 -79 -141 -122 -243 -176 -38 -21 -66 -38
-62 -38 16 0 114 54 183 101 39 27 73 49 76 49 3 0 6 -91 7 -202 1 -111 3
-204 5 -205 2 -2 29 31 61 73 l57 76 74 -73 74 -73 0 382 0 382 -106 71 c-82
54 -104 74 -99 87 22 57 37 160 37 252 -1 130 -25 232 -84 350 -34 69 -60 103
-138 180 -104 104 -190 158 -325 200 -79 25 -277 36 -354 20z m109 -99 c0 -16
3 -36 6 -45 4 -12 0 -16 -15 -16 -18 0 -21 6 -21 45 0 33 4 45 15 45 10 0 15
-10 15 -29z m86 9 c0 -8 4 -23 9 -33 4 -10 3 -23 -2 -28 -14 -14 -65 -7 -71
10 -4 11 2 12 24 7 l29 -6 -27 15 c-27 15 -35 34 -21 49 13 12 58 2 59 -14z
m-135 -30 c9 -42 -6 -64 -20 -29 -9 23 -10 23 -10 2 -1 -29 -17 -38 -31 -16
-11 17 -11 17 -6 1 3 -12 0 -18 -9 -18 -8 0 -17 12 -21 28 -3 15 -7 33 -10 40
-6 22 28 27 42 7 13 -18 14 -18 14 4 0 17 5 22 22 19 16 -2 24 -12 29 -38z
m223 34 c9 -3 16 -13 16 -21 0 -9 -5 -11 -12 -7 -9 6 -9 3 1 -9 7 -9 11 -24 7
-33 -9 -22 -70 -15 -74 9 -3 16 -1 17 16 8 31 -17 37 -13 11 7 -37 31 -12 64
35 46z m70 -22 c9 -15 -17 -82 -31 -82 -16 0 -17 17 -2 59 11 31 23 39 33 23z
m-422 -19 c35 -31 14 -83 -34 -83 -13 0 -53 68 -46 76 4 3 50 22 57 23 3 1 13
-6 23 -16z m506 -15 c7 -7 12 -21 12 -33 0 -12 -5 -26 -12 -33 -28 -28 -78 -7
-78 33 0 12 5 26 12 33 7 7 21 12 33 12 12 0 26 -5 33 -12z m-596 -45 c33 -32
35 -43 8 -43 -11 0 -23 -7 -26 -15 -11 -29 -31 -15 -38 26 -10 66 9 77 56 32z
m668 -19 c5 -27 6 -28 17 -9 9 15 15 17 24 8 9 -9 5 -20 -16 -47 -30 -39 -45
-39 -45 1 0 21 -2 23 -15 13 -27 -23 -35 0 -12 35 26 40 40 40 47 -1z m-208
-33 c120 -41 208 -105 275 -199 256 -357 0 -852 -440 -852 -245 0 -464 177
-522 421 -80 342 204 677 556 654 42 -3 101 -14 131 -24z m-591 -14 c-8 -8 -5
-17 11 -34 17 -18 19 -26 10 -35 -10 -10 -16 -7 -28 11 -10 13 -22 20 -31 17
-33 -13 -35 8 -2 35 31 25 64 30 40 6z m899 -7 c12 -12 18 -26 14 -32 -5 -7
-12 -5 -22 8 -14 19 -15 18 -8 -1 12 -33 12 -36 -6 -48 -13 -9 -21 -7 -37 7
-22 20 -28 46 -11 46 5 0 14 -8 20 -17 8 -15 9 -13 4 9 -11 48 12 62 46 28z
m-943 -72 c31 -29 29 -48 -3 -48 -22 0 -24 -3 -15 -14 21 -25 -7 -28 -39 -5
-40 30 -39 49 3 49 27 1 29 2 14 11 -18 11 -15 29 5 29 7 0 22 -10 35 -22z
m1039 -42 c6 -14 -35 -86 -48 -86 -7 0 -12 16 -9 32 0 4 -8 12 -19 18 -29 15
-25 28 13 39 46 13 57 13 63 -3z m-1101 -47 c26 -16 33 -25 25 -33 -13 -13
-80 20 -80 41 0 18 13 16 55 -8z m1145 -25 c0 -8 -5 -24 -11 -35 -9 -18 -8
-19 9 -10 15 8 21 7 25 -3 5 -12 -49 -46 -73 -46 -14 0 -12 34 3 49 10 11 8
12 -10 7 -38 -12 -35 12 4 33 47 25 53 25 53 5z m-1169 -14 c39 -21 16 -90
-30 -90 -16 0 -41 30 -41 50 0 20 25 50 41 50 6 0 19 -5 30 -10z m1215 -105
c9 -35 -1 -53 -31 -61 -31 -8 -53 10 -57 45 -2 19 3 26 22 32 46 13 59 10 66
-16z m-1236 -10 c14 -8 13 -38 -2 -53 -20 -20 -31 -14 -24 13 6 22 3 25 -18
25 -26 0 -41 14 -31 29 5 9 52 0 75 -14z m-27 -187 c7 -20 -12 -48 -31 -48
-39 0 -57 51 -25 69 19 10 48 -1 56 -21z m1275 -10 c-4 -26 -30 -43 -52 -35
-21 8 -21 53 1 66 25 13 55 -5 51 -31z m-1205 -200 c2 -7 -3 -22 -12 -32 -15
-18 -15 -19 3 -12 12 4 23 2 28 -6 13 -21 10 -27 -24 -43 l-33 -15 42 6 c56 8
65 -13 28 -62 -20 -26 -30 -33 -36 -23 -4 7 -5 17 -3 21 3 5 -9 23 -26 40 -31
30 -31 32 -14 46 18 13 18 14 -3 7 -25 -7 -32 12 -12 32 9 9 7 10 -10 6 -33
-9 -25 15 12 31 41 18 54 19 60 4z m1147 -13 c15 -19 3 -75 -16 -75 -9 0 -24
5 -34 10 -16 8 -18 8 -14 -5 4 -8 15 -15 26 -15 27 0 18 -23 -13 -31 -13 -4
-18 -7 -11 -8 14 -1 17 -31 3 -31 -19 0 -71 35 -71 48 0 7 11 24 24 37 13 13
21 26 19 29 -3 3 2 17 11 31 18 28 57 33 76 10z m-1020 -181 l55 -55 -22 -19
c-13 -10 -23 -23 -23 -29 0 -6 -7 -11 -15 -11 -10 0 -15 10 -15 28 0 21 -2 24
-10 12 -7 -12 -12 -12 -21 -3 -10 10 -8 18 10 37 28 30 11 45 -26 21 -35 -23
-50 -5 -19 24 14 13 22 29 19 37 -10 28 14 13 67 -42z m918 30 l37 -16 -22
-15 c-13 -9 -23 -21 -23 -29 0 -28 -19 -23 -40 11 -21 35 -21 65 0 65 6 0 27
-7 48 -16z m-58 -54 c24 -24 25 -38 3 -62 -20 -22 -41 -23 -65 -1 -10 9 -18
11 -18 6 0 -6 7 -13 15 -17 23 -8 18 -32 -10 -50 -33 -22 -37 -21 -62 19 l-23
34 22 16 c13 8 30 15 40 15 10 0 18 6 18 14 0 14 36 46 52 46 5 0 17 -9 28
-20z m-801 -85 c-25 -37 -34 -42 -44 -25 -9 15 46 83 58 71 7 -7 2 -22 -14
-46z m72 15 c10 -6 19 -18 19 -28 0 -12 3 -13 8 -5 4 7 13 9 21 4 10 -7 10
-13 2 -29 -14 -26 -14 -42 -1 -42 6 0 15 11 20 25 8 21 15 25 37 22 24 -3 28
-8 28 -38 0 -47 33 -52 58 -9 17 29 47 41 47 20 0 -7 6 -7 19 0 11 5 40 10 65
10 44 0 46 -1 46 -29 0 -16 3 -36 6 -45 4 -12 0 -16 -15 -16 -17 0 -21 6 -21
30 0 42 -28 40 -32 -2 -4 -46 -28 -49 -28 -4 0 26 -4 36 -16 36 -13 0 -15 -7
-10 -35 6 -28 4 -35 -9 -35 -8 0 -15 4 -15 8 0 5 -19 9 -42 8 -24 0 -55 3 -70
7 -21 6 -25 11 -20 29 5 22 5 22 -12 6 -20 -21 -30 -22 -57 -7 -14 7 -19 19
-17 38 3 30 -25 67 -42 56 -18 -11 -11 -35 10 -35 23 0 27 -18 6 -26 -22 -9
-56 14 -56 38 0 22 26 58 42 58 5 0 18 -5 29 -10z m553 -60 c9 -22 16 -43 16
-45 0 -10 -37 -4 -49 8 -10 10 -12 8 -9 -7 5 -28 -20 -31 -31 -4 -9 21 -10 21
-10 2 -2 -59 -91 -59 -91 1 0 40 50 61 79 33 10 -11 11 -10 6 3 -8 21 13 35
28 20 16 -16 30 -14 24 3 -6 14 1 26 14 26 4 0 14 -18 23 -40z"/>
<path d="M700 1793 c0 -5 4 -15 10 -23 11 -18 25 -7 17 15 -6 15 -27 21 -27 8z"/>
<path d="M1204 1775 c-7 -17 4 -37 17 -30 12 8 12 45 -1 45 -6 0 -13 -7 -16
-15z"/>
<path d="M826 1684 c-317 -77 -477 -433 -328 -734 57 -115 203 -229 332 -259
113 -26 264 -7 364 47 65 34 174 143 208 208 104 195 68 444 -87 599 -130 130
-312 182 -489 139z m124 -144 c0 -5 -5 -10 -11 -10 -5 0 -7 5 -4 10 3 6 8 10
11 10 2 0 4 -4 4 -10z m-247 -30 c12 -18 15 -18 20 -5 7 17 37 21 37 5 0 -6
-7 -13 -15 -17 -13 -5 -13 -8 5 -20 11 -8 20 -18 20 -23 0 -12 -37 0 -51 16
-9 11 -15 12 -28 2 -13 -10 -14 -10 -4 1 9 11 8 19 -4 37 -19 29 0 32 20 4z
m524 -4 c-12 -17 -13 -26 -4 -35 8 -8 8 -11 -1 -11 -7 0 -12 5 -12 12 0 7 -6
6 -17 -4 -23 -19 -53 -30 -53 -19 0 5 7 14 15 21 11 9 13 16 5 24 -15 15 -12
26 5 26 9 0 18 -7 22 -15 5 -13 8 -13 20 5 20 28 39 25 20 -4z m-563 -31 c9
-14 23 -25 30 -25 7 0 19 -7 26 -15 10 -13 9 -15 -8 -15 -12 0 -24 5 -27 10
-4 6 -11 8 -16 5 -16 -11 -10 -24 14 -27 32 -4 18 -24 -15 -20 -36 3 -37 -16
-1 -20 14 -2 28 -9 31 -16 3 -10 -6 -13 -34 -10 -25 2 -39 -2 -42 -11 -3 -9 0
-11 7 -6 16 9 61 -2 61 -16 0 -7 -16 -10 -40 -7 -26 2 -40 -1 -40 -8 0 -7 6
-12 13 -11 29 1 47 -4 47 -12 0 -15 -30 -21 -51 -11 -15 8 -19 7 -19 -4 0 -8
11 -16 25 -18 37 -4 35 -22 -2 -26 -18 -2 -33 -7 -33 -11 0 -5 11 -6 24 -4 27
6 45 -15 25 -28 -8 -5 -24 -9 -36 -9 -13 0 -23 -6 -23 -14 0 -11 9 -13 35 -9
19 3 35 1 35 -4 0 -15 -23 -33 -42 -33 -10 0 -18 -6 -18 -13 0 -21 11 -27 30
-15 9 6 26 8 36 4 18 -7 18 -9 -5 -27 -13 -11 -30 -18 -37 -15 -7 3 -10 -2 -7
-15 5 -18 7 -18 23 -4 16 15 60 21 60 8 0 -12 -33 -43 -47 -43 -15 0 -16 -9
-3 -30 8 -12 10 -12 16 3 9 24 57 23 52 0 -2 -10 -13 -22 -26 -28 -26 -11 -27
-18 -8 -34 10 -9 15 -8 20 4 5 15 66 22 66 8 0 -13 -33 -43 -48 -43 -12 0 -12
-4 3 -26 23 -35 8 -46 -17 -11 -11 15 -24 24 -30 21 -12 -8 -88 26 -88 39 0 5
17 7 39 4 31 -4 38 -2 34 9 -3 8 -13 14 -23 14 -19 0 -80 46 -80 60 0 10 40 1
58 -13 9 -7 11 -6 6 7 -3 9 -14 16 -23 16 -22 0 -78 46 -68 56 4 5 21 3 37 -3
17 -6 30 -8 30 -3 0 4 -8 10 -18 12 -10 3 -29 20 -42 38 -19 27 -20 32 -7 27
9 -4 24 -10 32 -13 8 -3 15 -1 15 5 0 6 -5 11 -10 11 -13 0 -60 49 -60 61 0
16 21 9 45 -16 15 -15 25 -19 25 -11 0 8 -11 21 -25 30 -31 20 -52 56 -32 56
7 0 23 -9 35 -20 33 -31 26 -3 -9 37 -35 40 -32 54 7 29 35 -24 40 -14 10 19
-41 44 -32 63 11 23 18 -17 23 -18 23 -6 0 9 -7 21 -15 28 -8 7 -15 19 -15 28
0 12 6 10 25 -8 20 -19 25 -20 25 -7 0 9 -4 19 -10 22 -5 3 -15 15 -20 26 -15
26 4 25 30 -3 24 -26 27 -8 4 28 -22 32 -8 46 16 16 23 -28 37 -10 16 20 -9
12 -16 26 -16 30 0 16 18 7 34 -17z m320 3 c9 -12 13 -24 11 -27 -6 -5 -45 29
-45 41 0 15 19 8 34 -14z m289 5 c-3 -10 -10 -23 -15 -30 -19 -24 3 -34 22
-11 24 30 38 16 16 -16 -22 -35 -20 -50 4 -26 26 26 44 27 30 1 -5 -11 -15
-23 -20 -26 -6 -3 -10 -13 -10 -22 0 -13 5 -12 25 7 19 18 25 20 25 8 0 -9 -7
-21 -15 -28 -8 -7 -15 -19 -15 -28 0 -12 5 -11 23 6 13 12 26 22 30 22 12 0
-21 -58 -35 -63 -7 -2 -10 -7 -6 -11 3 -4 18 0 32 10 39 25 42 11 7 -29 -34
-38 -43 -69 -11 -37 11 11 27 20 35 20 13 0 13 -3 -1 -25 -9 -14 -25 -30 -35
-36 -11 -5 -19 -16 -19 -24 0 -9 8 -6 25 10 24 25 45 32 45 16 0 -12 -47 -61
-58 -61 -6 0 -13 -7 -16 -16 -6 -15 -4 -15 20 1 14 9 28 14 31 11 9 -9 -25
-54 -47 -61 -11 -3 -20 -10 -20 -15 0 -4 13 -3 30 3 16 6 33 8 37 3 10 -10
-44 -54 -71 -58 -11 -2 -22 -10 -24 -18 -4 -12 -2 -13 9 -4 19 15 59 24 59 14
0 -14 -61 -60 -80 -60 -10 0 -20 -6 -23 -14 -4 -11 3 -13 35 -8 30 4 39 2 34
-7 -11 -18 -66 -43 -81 -37 -8 3 -23 -7 -34 -22 -24 -34 -39 -23 -16 12 13 19
14 26 4 26 -14 0 -49 29 -49 42 0 15 59 8 68 -9 9 -15 11 -14 21 4 9 17 7 22
-8 26 -11 2 -24 14 -30 26 -10 19 -9 21 12 21 14 0 30 -7 37 -15 11 -13 15
-13 21 -3 12 18 11 28 -3 28 -14 0 -48 30 -48 42 0 12 44 10 58 -4 6 -6 15 -8
19 -3 5 4 2 10 -4 12 -7 3 -23 13 -35 23 -22 18 -22 19 -4 26 10 4 27 2 36 -4
19 -12 30 -6 30 15 0 7 -8 13 -18 13 -19 0 -42 18 -42 33 0 5 13 7 30 5 18 -3
31 0 34 9 4 8 -3 13 -17 13 -13 0 -32 6 -43 14 -18 14 -18 15 8 21 15 4 32 4
37 0 6 -3 11 -2 11 4 0 5 -15 11 -32 13 -40 4 -44 22 -5 26 16 2 27 9 27 18 0
11 -4 12 -19 4 -11 -5 -27 -7 -35 -4 -10 4 -16 1 -16 -9 0 -8 -9 -17 -20 -20
-11 -3 -20 -12 -20 -21 0 -8 -13 -38 -30 -66 -16 -28 -30 -54 -30 -58 0 -4 -9
-22 -21 -41 -15 -25 -23 -31 -32 -22 -6 6 -19 11 -29 11 -19 0 -68 -44 -68
-63 -1 -28 -27 -44 -81 -50 l-56 -7 -31 49 c-28 46 -34 50 -73 53 l-43 3 1 51
c0 37 6 59 24 83 18 24 23 43 21 80 -1 33 3 53 13 61 8 7 15 19 15 26 0 24 85
22 112 -3 14 -12 32 -14 90 -9 40 4 91 8 113 10 22 1 51 7 65 13 28 12 45 3
55 -28 5 -16 14 -19 46 -17 21 2 39 8 39 15 0 7 -13 9 -40 6 -26 -4 -40 -2
-40 5 0 14 45 26 61 17 7 -5 10 -3 7 6 -3 9 -17 13 -42 11 -28 -3 -37 0 -34
10 3 7 17 14 31 16 26 3 34 12 20 25 -3 4 -12 2 -19 -4 -16 -13 -48 -4 -39 11
3 5 15 10 26 10 10 0 19 4 19 9 0 15 -18 23 -25 11 -3 -5 -15 -10 -27 -10 -17
0 -18 2 -8 15 7 8 18 15 25 15 7 0 20 11 29 25 19 29 38 34 29 8z m-324 -34
c9 -16 15 -18 21 -10 5 9 12 8 25 -6 15 -14 18 -15 13 -2 -3 9 -2 22 3 30 16
26 14 -72 -2 -103 -8 -14 -23 -18 -68 -18 -52 0 -59 2 -69 25 -17 36 -15 70 5
86 13 11 17 11 20 2 6 -18 23 -16 23 2 0 21 13 19 29 -6z m-121 -641 c-3 -36
-7 -44 -27 -46 -27 -4 -47 11 -36 28 5 8 10 8 21 -1 12 -9 14 -5 14 25 0 26 4
36 16 36 12 0 14 -9 12 -42z m86 2 c9 -22 16 -42 16 -44 0 -1 -20 -3 -45 -3
-50 0 -51 3 -31 52 20 46 40 44 60 -5z m67 18 l0 -23 9 23 c6 12 18 22 30 22
17 0 20 -6 20 -45 0 -33 -4 -45 -15 -45 -8 0 -16 8 -16 18 -1 16 -2 16 -6 0
-2 -10 -11 -18 -19 -18 -8 0 -15 8 -15 18 -1 16 -2 16 -6 0 -9 -34 -23 -17
-23 27 0 38 3 45 20 45 14 0 20 -7 21 -22z m144 -23 c0 -39 -1 -40 -37 -43
l-38 -3 0 46 0 46 38 -3 c36 -3 37 -4 37 -43z"/>
<path d="M890 1277 c0 -8 -10 -19 -22 -26 -22 -11 -6 -8 27 5 10 4 15 0 15
-10 0 -10 -6 -13 -15 -10 -9 4 -15 0 -15 -10 0 -9 -5 -16 -11 -16 -8 0 -8 -4
0 -14 9 -11 9 -15 -1 -20 -10 -5 -10 -7 0 -12 20 -10 14 -21 -19 -33 -57 -20
-59 -16 -33 51 13 35 18 56 11 48 -16 -17 -72 -148 -66 -154 2 -2 35 1 73 6
38 5 75 7 82 4 16 -6 19 -47 4 -62 -8 -8 -6 -15 5 -24 12 -10 18 -10 30 0 9 8
12 17 7 22 -5 5 -7 22 -4 38 5 33 6 33 105 21 32 -4 59 -5 61 -3 2 2 -9 29
-25 60 -16 31 -29 62 -29 68 0 6 -7 17 -15 24 -10 8 -7 -7 9 -47 22 -53 23
-59 8 -64 -13 -5 -12 -8 8 -11 14 -3 -2 -4 -35 -3 -85 4 -85 4 -85 16 0 6 6 9
13 6 6 -2 21 -1 32 4 17 6 17 8 3 8 -10 1 -18 6 -18 12 0 5 4 8 8 5 5 -3 9 8
9 24 0 17 -4 30 -9 30 -4 0 -8 7 -8 15 0 9 -6 12 -15 9 -9 -4 -15 0 -15 9 0 8
9 17 21 20 37 10 10 27 -42 27 -34 0 -49 -4 -49 -13z m74 -63 c30 -30 13 -74
-29 -74 -42 0 -59 44 -29 74 8 9 22 16 29 16 7 0 21 -7 29 -16z m-59 -94 c8
-13 -7 -17 -73 -23 -60 -5 -60 3 1 19 56 15 65 16 72 4z"/>
<path d="M1085 790 c-3 -5 -1 -10 4 -10 6 0 11 5 11 10 0 6 -2 10 -4 10 -3 0
-8 -4 -11 -10z"/>
<path d="M1470 1539 c0 -5 5 -7 10 -4 6 3 10 8 10 11 0 2 -4 4 -10 4 -5 0 -10
-5 -10 -11z"/>
<path d="M346 1451 c-3 -5 1 -14 10 -21 11 -10 18 -10 27 -1 9 9 9 14 -3 21
-19 12 -27 12 -34 1z"/>
<path d="M1551 1361 c-10 -6 -10 -10 -1 -16 7 -4 19 0 28 9 14 13 14 16 2 16
-8 0 -21 -4 -29 -9z"/>
<path d="M1514 925 c10 -8 23 -12 28 -9 14 9 -2 24 -25 24 -21 -1 -21 -1 -3
-15z"/>
<path d="M1460 859 c0 -5 5 -7 10 -4 6 3 10 8 10 11 0 2 -4 4 -10 4 -5 0 -10
-5 -10 -11z"/>
<path d="M540 730 c0 -5 5 -10 11 -10 5 0 7 5 4 10 -3 6 -8 10 -11 10 -2 0 -4
-4 -4 -10z"/>
<path d="M1350 725 c0 -15 26 -32 36 -23 2 3 2 13 -2 22 -8 20 -34 21 -34 1z"/>
<path d="M1300 649 c0 -5 5 -7 10 -4 6 3 10 8 10 11 0 2 -4 4 -10 4 -5 0 -10
-5 -10 -11z"/>
<path d="M1082 579 c1 -13 8 -23 13 -21 15 3 12 35 -3 40 -9 3 -13 -3 -10 -19z"/>
<path d="M1617 703 c-4 -6 -4 -19 -1 -28 6 -14 3 -16 -12 -12 -14 5 -30 -6
-59 -40 -26 -31 -33 -45 -21 -40 13 5 26 1 43 -14 30 -29 43 -16 14 15 -15 16
-19 26 -12 31 6 3 9 11 6 16 -9 13 49 11 62 -2 18 -18 37 -1 21 18 -7 9 -18
27 -24 42 -6 15 -13 21 -17 14z"/>
<path d="M263 665 c3 -19 2 -35 -4 -35 -5 0 -9 9 -9 20 0 11 -4 20 -10 20 -15
0 -12 -36 5 -50 26 -22 48 -4 41 33 -5 30 -5 31 9 13 19 -25 30 -15 15 13 -6
12 -20 21 -32 21 -18 0 -20 -4 -15 -35z"/>
<path d="M305 620 l-29 -30 24 -25 c25 -26 42 -26 20 0 -15 19 -5 34 12 17 20
-20 32 -13 13 8 -21 23 -9 26 19 5 19 -15 19 -15 -4 -40 -17 -18 -21 -28 -13
-36 8 -8 13 -8 17 0 12 18 25 12 19 -8 -6 -25 15 -38 24 -14 4 10 14 23 22 30
14 10 8 19 -40 67 l-55 56 -29 -30z m110 -70 c3 -5 -1 -10 -9 -10 -9 0 -16 5
-16 10 0 6 4 10 9 10 6 0 13 -4 16 -10z"/>
<path d="M1487 573 c-4 -6 6 -25 22 -43 20 -25 30 -30 36 -21 5 8 -3 24 -23
43 -16 17 -32 26 -35 21z"/>
<path d="M1440 533 c-14 -9 -27 -18 -28 -19 -2 -1 6 -16 19 -33 26 -36 57 -44
39 -11 -12 22 -7 25 20 10 13 -7 21 -7 26 2 4 6 2 14 -5 16 -7 2 -16 15 -21
28 -11 28 -18 29 -50 7z m30 -17 c0 -11 -19 -15 -25 -6 -3 5 1 10 9 10 9 0 16
-2 16 -4z"/>
<path d="M440 499 c-16 -57 -2 -69 45 -38 19 13 35 27 35 32 0 13 -23 7 -43
-10 -19 -18 -19 -17 -13 14 11 48 -11 50 -24 2z"/>
<path d="M511 455 c-25 -42 -25 -45 -8 -45 17 0 50 61 39 72 -6 6 -18 -5 -31
-27z"/>
<path d="M1356 474 c-9 -8 -16 -22 -16 -29 0 -17 27 -45 45 -45 24 0 57 34 50
53 -8 20 -14 21 -35 6 -11 -8 -12 -12 -2 -16 6 -2 10 -9 6 -14 -9 -15 -23 -10
-34 11 -9 17 -7 22 15 30 14 5 25 12 25 15 0 12 -40 4 -54 -11z"/>
<path d="M552 448 c-28 -28 -3 -84 33 -76 23 4 24 23 1 23 -23 0 -29 14 -17
34 8 12 12 13 25 1 21 -16 33 -5 16 15 -15 18 -41 20 -58 3z"/>
<path d="M1278 438 c-15 -12 -15 -17 -1 -50 14 -35 16 -36 41 -26 41 18 51 30
22 28 -42 -4 -46 0 -20 16 l25 15 -27 -6 c-34 -7 -37 8 -5 23 21 10 21 11 1
11 -11 1 -27 -5 -36 -11z"/>
<path d="M631 399 c-6 -17 -11 -35 -11 -40 0 -11 59 -29 65 -19 3 5 -4 11 -15
15 -26 8 -26 25 0 18 11 -3 20 0 20 6 0 6 -7 11 -15 11 -8 0 -15 5 -15 10 0 6
11 8 28 4 19 -5 24 -3 17 4 -5 6 -22 14 -36 17 -23 6 -28 2 -38 -26z"/>
<path d="M1200 409 c-38 -14 -44 -21 -42 -40 l4 -24 -24 23 c-13 12 -27 22
-31 22 -9 0 -9 -37 -1 -67 8 -29 24 -30 24 -1 0 20 1 20 18 5 30 -27 43 -21
40 19 -4 46 16 55 30 14 6 -16 16 -30 21 -30 13 0 13 16 2 45 -5 13 -3 24 7
31 26 19 -1 21 -48 3z"/>
<path d="M751 354 c-27 -45 -27 -45 9 -37 19 3 30 1 30 -6 0 -6 7 -11 15 -11
14 0 14 31 -1 78 -7 23 -32 12 -53 -24z m39 -4 c0 -5 -5 -10 -11 -10 -5 0 -7
5 -4 10 3 6 8 10 11 10 2 0 4 -4 4 -10z"/>
<path d="M830 341 c0 -22 5 -43 10 -46 6 -3 10 3 10 14 0 27 12 27 28 1 18
-30 29 -24 35 18 5 44 -9 66 -21 32 l-9 -24 -12 22 c-20 37 -41 28 -41 -17z"/>
<path d="M1060 340 c0 -29 4 -40 15 -40 16 0 19 20 9 58 -10 36 -24 25 -24
-18z"/>
<path d="M930 330 c0 -37 2 -40 29 -40 36 0 55 22 47 55 -5 21 -12 25 -41 25
-34 0 -35 -1 -35 -40z m50 0 c0 -11 -4 -20 -10 -20 -5 0 -10 9 -10 20 0 11 5
20 10 20 6 0 10 -9 10 -20z"/>
<path d="M570 270 c8 -5 20 -10 25 -10 6 0 3 5 -5 10 -8 5 -19 10 -25 10 -5 0
-3 -5 5 -10z"/>
<path d="M1265 249 c-27 -10 -37 -17 -21 -14 31 7 97 33 81 33 -5 0 -32 -8
-60 -19z"/>
<path d="M620 250 c8 -5 22 -9 30 -9 10 0 8 3 -5 9 -27 12 -43 12 -25 0z"/>
<path d="M708 223 c7 -3 16 -2 19 1 4 3 -2 6 -13 5 -11 0 -14 -3 -6 -6z"/>
<path d="M1188 223 c7 -3 16 -2 19 1 4 3 -2 6 -13 5 -11 0 -14 -3 -6 -6z"/>
<path d="M748 213 c6 -2 18 -2 25 0 6 3 1 5 -13 5 -14 0 -19 -2 -12 -5z"/>
<path d="M1138 213 c6 -2 18 -2 25 0 6 3 1 5 -13 5 -14 0 -19 -2 -12 -5z"/>
<path d="M813 203 c9 -2 25 -2 35 0 9 3 1 5 -18 5 -19 0 -27 -2 -17 -5z"/>
<path d="M1073 203 c9 -2 25 -2 35 0 9 3 1 5 -18 5 -19 0 -27 -2 -17 -5z"/>
<path d="M918 193 c23 -2 61 -2 85 0 23 2 4 4 -43 4 -47 0 -66 -2 -42 -4z"/>
</g>
</svg>
