<svg id="SvgjsSvg1001" width="288" height="288" xmlns="http://www.w3.org/2000/svg" version="1.1" xmlns:xlink="http://www.w3.org/1999/xlink" xmlns:svgjs="http://svgjs.com/svgjs"><defs id="SvgjsDefs1002"></defs><g id="SvgjsG1008"><svg xmlns="http://www.w3.org/2000/svg" enable-background="new 0 0 64 64" viewBox="0 0 64 64" width="288" height="288"><path d="M14.3 60.9h-2.1c-.6 0-1 .4-1 1s.4 1 1 1h2.1c.6 0 1-.4 1-1S14.8 60.9 14.3 60.9zM61.7 24.5l-.9-.7c-.4-.4-1.1-.3-1.4.1-.4.4-.3 1.1.1 1.4l.9.7c0 0 .1 0 .1.1.3.2.5.6.5 1V60c0 .6-.5.9-.9.9H18.4c-.6 0-1 .4-1 1s.4 1 1 1h41.7c1.6 0 2.9-1.3 2.9-2.9V27.1C63 26 62.5 25.1 61.7 24.5zM18.6 13.7L31.3 3.3c.4-.4 1.1-.4 1.5 0l23.4 19.3c.2.2.4.2.6.2.3 0 .6-.1.8-.4.4-.4.3-1.1-.1-1.4L34.1 1.7c-1.2-1-2.9-1-4.1 0L17.3 12.1c-.4.4-.5 1-.1 1.4C17.5 14 18.2 14 18.6 13.7zM8.1 60.9l-4.3 0c-.2 0-.4-.1-.5-.2C3.1 60.5 3 60.3 3 60.1v-33c0-.4.2-.8.5-1 0 0 .1 0 .1-.1l11.2-9.2c.4-.4.5-1 .1-1.4-.4-.4-1-.5-1.4-.1L2.3 24.5C1.5 25.1 1 26 1 27.1v33c0 .8.3 1.5.9 2.1.5.5 1.2.7 1.7.7.1 0 .1 0 .2 0h4.2c.6 0 1-.4 1-1S8.7 60.9 8.1 60.9z" fill="#673bb8" class="color000 svgShape"></path><path d="M32 46.8L6.6 29.2c-.5-.3-1.1-.2-1.4.3-.3.5-.2 1.1.3 1.4l26 18c.2.1.4.2.6.2s.4-.1.6-.2l26-18c.5-.3.6-.9.3-1.4s-.9-.6-1.4-.3L32 46.8zM59 50c0-.6-.4-1-1-1s-1 .4-1 1v2c0 .6.4 1 1 1s1-.4 1-1V50zM58 55c-.6 0-1 .4-1 1v.9c0 0-.1.1-.1.1H50c-.6 0-1 .4-1 1s.4 1 1 1h6.9c1.2 0 2.1-.9 2.1-2.1V56C59 55.4 58.6 55 58 55zM7 34c0-.6-.4-1-1-1s-1 .4-1 1v6c0 .6.4 1 1 1s1-.4 1-1V34zM6 43c-.6 0-1 .4-1 1v2c0 .6.4 1 1 1s1-.4 1-1v-2C7 43.4 6.6 43 6 43zM41.5 15c.3 0 .6-.1.8-.4.3-.4.3-1.1-.2-1.4l-7.5-6c-.4-.3-1.1-.3-1.4.2-.3.4-.3 1.1.2 1.4l7.5 6C41.1 14.9 41.3 15 41.5 15z" fill="#673bb8" class="color000 svgShape"></path></svg></g></svg>