<svg id="SvgjsSvg1001" width="288" height="288" xmlns="http://www.w3.org/2000/svg" version="1.1" xmlns:xlink="http://www.w3.org/1999/xlink" xmlns:svgjs="http://svgjs.com/svgjs"><defs id="SvgjsDefs1002"></defs><g id="SvgjsG1008"><svg xmlns="http://www.w3.org/2000/svg" width="288" height="288" enable-background="new 0 0 32 32" viewBox="0 0 32 32"><path fill="#673bb8" d="M9.5 4h5C14.776 4 15 3.776 15 3.5S14.776 3 14.5 3h-5C9.224 3 9 3.224 9 3.5S9.224 4 9.5 4zM11.5 29h1c.276 0 .5-.224.5-.5S12.776 28 12.5 28h-1c-.276 0-.5.224-.5.5S11.224 29 11.5 29z" class="color263238 svgShape"></path><path fill="#673bb8" d="M17.5,31h-11C5.122,31,4,29.879,4,28.5v-25C4,2.121,5.122,1,6.5,1h11C18.878,1,20,2.121,20,3.5
									C20,3.776,19.776,4,19.5,4S19,3.776,19,3.5C19,2.673,18.327,2,17.5,2h-11C5.673,2,5,2.673,5,3.5v25
									C5,29.327,5.673,30,6.5,30h11c0.827,0,1.5-0.673,1.5-1.5v-5c0-0.276,0.224-0.5,0.5-0.5s0.5,0.224,0.5,0.5v5
									C20,29.879,18.878,31,17.5,31z" class="color263238 svgShape"></path><path fill="#673bb8" d="M15.5,25.5c-0.061,0-0.123-0.011-0.181-0.034C15.126,25.392,15,25.206,15,25v-4h-2.5
							c-0.827,0-1.5-0.673-1.5-1.5v-13C11,5.673,11.673,5,12.5,5h14C27.327,5,28,5.673,28,6.5v13c0,0.827-0.673,1.5-1.5,1.5h-6.655
							l-3.976,4.338C15.772,25.443,15.637,25.5,15.5,25.5z M12.5,6C12.224,6,12,6.225,12,6.5v13c0,0.275,0.224,0.5,0.5,0.5h3
							c0.276,0,0.5,0.224,0.5,0.5v3.215l3.256-3.553C19.351,20.059,19.485,20,19.625,20H26.5c0.276,0,0.5-0.225,0.5-0.5v-13
							C27,6.225,26.776,6,26.5,6H12.5z" class="color263238 svgShape"></path><path fill="#673bb8" d="M19.5,17c1.402,0,2.5-1.098,2.5-2.5c0-1.135-0.771-1.962-2.291-2.458l-0.113-0.037
								C19.026,11.819,18.5,11.569,18.5,11c0-0.589,0.411-1,1-1c0.704,0,1.174,0.378,1.178,0.382c0.213,0.178,0.527,0.15,0.705-0.06
								c0.178-0.212,0.15-0.526-0.061-0.704C21.292,9.593,20.576,9,19.5,9c-1.141,0-2,0.86-2,2c0,1.374,1.344,1.813,1.785,1.955
								l0.113,0.037C20.477,13.344,21,13.838,21,14.5c0,0.855-0.645,1.5-1.5,1.5c-0.928,0-1.459-0.612-1.6-0.8
								c-0.166-0.222-0.48-0.265-0.7-0.101c-0.222,0.166-0.267,0.479-0.101,0.7C17.311,16.082,18.108,17,19.5,17z" class="color263238 svgShape"></path><path fill="#673bb8" d="M19.5 18c.276 0 .5-.224.5-.5V17c0-.276-.224-.5-.5-.5S19 16.724 19 17v.5C19 17.776 19.224 18 19.5 18zM19.5 9.5C19.776 9.5 20 9.276 20 9V8.5C20 8.224 19.776 8 19.5 8S19 8.224 19 8.5V9C19 9.276 19.224 9.5 19.5 9.5z" class="color263238 svgShape"></path></svg></g></svg>