<svg id="SvgjsSvg1001" width="288" height="288" xmlns="http://www.w3.org/2000/svg" version="1.1" xmlns:xlink="http://www.w3.org/1999/xlink" xmlns:svgjs="http://svgjs.com/svgjs"><defs id="SvgjsDefs1002"></defs><g id="SvgjsG1008"><svg xmlns="http://www.w3.org/2000/svg" viewBox="0 0 48 48" width="288" height="288"><path d="M24,20a6,6,0,1,0,6,6A6,6,0,0,0,24,20Zm0,10a4,4,0,1,1,4-4A4,4,0,0,1,24,30Z" fill="#673bb8" class="color000 svgShape"></path><path d="M41.8,36.67l-5.46-7.28C37.06,18.86,33.43,8.66,24.69.28a1,1,0,0,0-1.38,0C14.58,8.64,10.94,18.86,11.66,29.39,5.76,37.26,6,36.79,6,37.27c0,8.22-.2,8.25.55,8.62s.45.36,7.8-5.16c1,2.51.81,2.27,2.91,2.27,1.32,4.41,1.26,5,2.24,5h9c1,0,.94-.65,2.24-5,2.09,0,1.87.26,2.91-2.27C41,46.21,40.53,46,41,46a1,1,0,0,0,1-1C42,36.66,42.08,37.05,41.8,36.67ZM24,2.38A34.07,34.07,0,0,1,31,12H17A34.07,34.07,0,0,1,24,2.38ZM8,37.6l4-5.3a35.54,35.54,0,0,0,1.63,6.48L8,43ZM27.76,46H20.24l-.9-3h9.32Zm3.6-5H25V38a1,1,0,0,0-2,0v3H16.64a34,34,0,0,1-.53-27H31.89A34,34,0,0,1,31.36,41ZM40,43l-5.61-4.22A35.54,35.54,0,0,0,36,32.3l4,5.3Z" fill="#673bb8" class="color000 svgShape"></path></svg></g></svg>